<?xml version="1.0" encoding="UTF-8" standalone="no"?><!DOCTYPE svg PUBLIC "-//W3C//DTD SVG 1.1//EN" "http://www.w3.org/Graphics/SVG/1.1/DTD/svg11.dtd"><svg width="100%" height="100%" viewBox="0 0 4171 4171" version="1.1" xmlns="http://www.w3.org/2000/svg" xmlns:xlink="http://www.w3.org/1999/xlink" xml:space="preserve" xmlns:serif="http://www.serif.com/" style="fill-rule:evenodd;clip-rule:evenodd;stroke-linejoin:round;stroke-miterlimit:2;"><rect id="Hex-Scanner-SQ" x="3.69" y="1.252" width="4166.67" height="4166.67" style="fill:none;"/><g id="HEX-SCANNER" serif:id="HEX SCANNER"><path d="M1575.63,1943.54c10.354,2.781 18.439,10.874 21.211,21.231c2.772,10.357 -0.191,21.406 -7.772,28.987c-101.509,101.509 -378.351,378.351 -378.351,378.351c-45.593,45.593 -119.513,45.593 -165.106,-0l-0.021,-0.021c-45.593,-45.593 -45.593,-119.514 -0,-165.106c-0,-0 248.981,-248.982 307.622,-307.623c7.588,-7.588 18.649,-10.548 29.013,-7.765c38.398,10.313 134.031,35.999 193.404,51.946Z" style="fill:#03366d;"/><path d="M2266.58,1905.03c45.806,45.806 45.241,119.887 0,165.128c0,-0 -685.362,685.362 -926.304,926.304c-45.594,45.594 -119.517,45.595 -165.112,0c-0.005,-0.005 -0.01,-0.01 -0.015,-0.015c-45.595,-45.595 -45.595,-119.518 -0,-165.112c240.942,-240.943 926.304,-926.305 926.304,-926.305c45.806,-45.806 119.887,-45.24 165.127,0Z" style="fill:#03366d;"/><path d="M2465.97,1705.64c-162.487,-161.548 -426.799,-161.016 -589.412,1.598l-43.277,43.277c-21.052,21.052 -51.736,29.274 -80.494,21.568l-439.097,-117.656c-15.316,-4.104 -27.78,-15.225 -33.596,-29.976c-5.815,-14.752 -4.294,-31.386 4.101,-44.838l253.286,-405.855c63.939,-102.454 176.153,-164.735 296.921,-164.799c0,0 474.575,16.726 846.468,29.833c245.925,8.667 443.282,206.024 451.949,451.949c13.107,371.893 29.833,846.468 29.833,846.468c-0.064,120.768 -62.345,232.982 -164.799,296.921l-405.855,253.286c-13.452,8.395 -30.087,9.916 -44.838,4.1c-14.751,-5.815 -25.872,-18.279 -29.976,-33.595l-117.656,-439.097c-7.706,-28.758 0.516,-59.442 21.568,-80.494l43.277,-43.277c162.613,-162.613 163.146,-426.925 1.597,-589.413Z" style="fill:#ff5918;"/><path d="M2228.07,2595.98c-2.781,-10.355 -10.873,-18.44 -21.23,-21.211c-10.357,-2.772 -21.406,0.19 -28.987,7.772c-101.509,101.509 -378.351,378.351 -378.351,378.351c-45.593,45.593 -45.593,119.513 -0,165.106l0.021,0.021c45.593,45.593 119.513,45.593 165.106,0c0,0 248.982,-248.982 307.623,-307.622c7.588,-7.588 10.548,-18.65 7.765,-29.013c-10.314,-38.399 -36,-134.031 -51.947,-193.404Z" style="fill:#03366d;"/></g></svg>
