<?xml version="1.0" encoding="UTF-8" standalone="no"?><!DOCTYPE svg PUBLIC "-//W3C//DTD SVG 1.1//EN" "http://www.w3.org/Graphics/SVG/1.1/DTD/svg11.dtd"><svg width="100%" height="100%" viewBox="0 0 4171 4171" version="1.1" xmlns="http://www.w3.org/2000/svg" xmlns:xlink="http://www.w3.org/1999/xlink" xml:space="preserve" xmlns:serif="http://www.serif.com/" style="fill-rule:evenodd;clip-rule:evenodd;stroke-linejoin:round;stroke-miterlimit:2;"><rect id="Hex-Scanner-FFF-SQ" x="3.177" y="1.252" width="4166.67" height="4166.67" style="fill:none;"/><g id="HEX-SCANNER" serif:id="HEX SCANNER"><path d="M1575.12,1943.54c10.354,2.781 18.439,10.874 21.211,21.231c2.771,10.357 -0.191,21.406 -7.772,28.987c-101.509,101.509 -378.351,378.351 -378.351,378.351c-45.593,45.593 -119.514,45.593 -165.107,-0l-0.021,-0.021c-45.593,-45.593 -45.593,-119.514 0,-165.106c0,-0 248.982,-248.982 307.623,-307.623c7.588,-7.588 18.649,-10.548 29.013,-7.765c38.398,10.313 134.03,35.999 193.404,51.946Z" style="fill:#fff;"/><path d="M2266.06,1905.03c45.806,45.806 45.24,119.887 0,165.128c0,-0 -685.362,685.362 -926.304,926.304c-45.595,45.594 -119.518,45.595 -165.112,0c-0.005,-0.005 -0.011,-0.01 -0.016,-0.015c-45.594,-45.595 -45.594,-119.518 0,-165.112c240.943,-240.943 926.305,-926.305 926.305,-926.305c45.806,-45.806 119.887,-45.24 165.127,0Z" style="fill:#fff;"/><path d="M2465.45,1705.64c-162.488,-161.548 -426.799,-161.016 -589.413,1.598l-43.276,43.277c-21.053,21.052 -51.737,29.274 -80.494,21.568l-439.098,-117.656c-15.316,-4.104 -27.78,-15.225 -33.595,-29.976c-5.816,-14.752 -4.294,-31.386 4.101,-44.838l253.286,-405.855c63.939,-102.454 176.153,-164.735 296.921,-164.799c-0,0 474.574,16.726 846.468,29.833c245.925,8.667 443.281,206.024 451.949,451.949c13.106,371.893 29.832,846.468 29.832,846.468c-0.063,120.768 -62.345,232.982 -164.798,296.921l-405.856,253.286c-13.451,8.395 -30.086,9.916 -44.837,4.1c-14.751,-5.815 -25.873,-18.279 -29.977,-33.595l-117.655,-439.097c-7.706,-28.758 0.516,-59.442 21.568,-80.494l43.276,-43.277c162.614,-162.613 163.146,-426.925 1.598,-589.413Z" style="fill:#fff;"/><path d="M2227.55,2595.98c-2.781,-10.355 -10.873,-18.44 -21.23,-21.211c-10.357,-2.772 -21.406,0.19 -28.987,7.772c-101.51,101.509 -378.352,378.351 -378.352,378.351c-45.592,45.593 -45.592,119.513 0,165.106l0.022,0.021c45.593,45.593 119.513,45.593 165.106,0c-0,0 248.982,-248.982 307.622,-307.622c7.588,-7.588 10.549,-18.65 7.765,-29.013c-10.313,-38.399 -35.999,-134.031 -51.946,-193.404Z" style="fill:#fff;"/></g></svg>